<svg xmlns="http://www.w3.org/2000/svg" width="267" height="299" fill="none" xmlns:v="https://vecta.io/nano"><path d="M184.336 292.437c6.378 2.17-9.385 5.115-11.6 5.324-23.89 2.286-49.737 1.22-73.402-1.69-.973-.12-1.974-.252-2.776-.625-5.85-2.705 12.942-4.54 14.688-4.682 6.485-.525 13.077-.87 19.62-.927 9.268-.078 45.562-.092 53.47 2.6z" fill="#eee"/><path d="M66.542 115.787l12.55-3.36c3.816-1.022 10.592-1.775 9.4-7.373-.1-.468-1.82-.05-1.715.458.593 2.805-1.143 4.43-3.582 5.083l-16.85 4.515c-1.005.267-.834.952.185.678zM4.584 41.033C2 41.878.385 44.146.992 46.9L21.384 123c1.4 4.423 5.637 3.376 8.998 2.478l28.408-7.6c1.008-.27.838-.955-.18-.682l-24.443 6.55c-3.074.824-8.693 3.575-10.72-.287-.735-1.4-.97-3.227-1.37-4.728L3.665 50.003c-.767-2.857-2.5-7.103 1.555-8.43 1.147-.38.078-.774-.635-.54z" fill="#5d7183"/><path d="M34.66 115.575l57.02-15.278a4.34 4.34 0 0 0 3.067-5.31l-20.42-76.192a4.34 4.34 0 0 0-5.31-3.067L12 31.01a4.34 4.34 0 0 0-3.067 5.31L29.35 112.51c.62 2.31 2.996 3.685 5.3 3.064z" fill="#fff"/><path d="M69.723 34.38l-21.94 5.878c-1 .266-.87.784.138.515l21.94-5.878c1-.27.87-.788-.138-.515zm2.775 10.348l-48.956 13.12c-1.02.273-.816 1.072.213.795l48.956-13.12c1.02-.273.816-1.07-.213-.795zm8.56 31.942L32.1 89.8c-1.06.284-.738 1.5.327 1.218l48.956-13.12c1.058-.287.738-1.505-.327-1.217zm2.896 10.83l-48.956 13.12c-.994.267-.863.83.15.558l48.956-13.12c.997-.266.863-.83-.15-.557zm-17.286 20.063l20.634-5.53c2.432-.653 5.8-1.015 7.447-3.142 1.498-1.945.902-3.958.344-6.04l-16.644-62.12c-.192-.717-1.906-.26-1.715.458l17.123 63.907c.44 2.023-.305 3.983-2.392 4.7-.884.298-1.817.486-2.72.728l-22.363 6c-1.044.284-.767 1.338.284 1.058zM56.6 18.493l-41.828 11.2c-1.246.334-2.616.568-3.798 1.104C6.48 32.844 8.28 37.302 9.22 40.82l19.03 71.017c.48 1.785 1.27 3.36 3.13 4.096 2.123.834 4.366-.082 6.44-.64l21.02-5.63c1.044-.28.77-1.334-.284-1.054l-23.438 6.283c-2.4.596-4.323-.547-5-2.943l-18.25-68.112c-.7-2.566-1.537-5.14-2.073-7.742-.603-2.918 1.324-4.288 3.713-4.927l43.376-11.62c1.044-.28.767-1.335-.284-1.054z" fill="#5d7183"/><path d="M75.88 66.963l-44.157 11.83c-1.324.355-2.687-.433-3.042-1.757l-1.38-5.16c-.355-1.324.433-2.687 1.757-3.042l44.157-11.83c1.324-.355 2.687.433 3.042 1.757l1.38 5.16c.355 1.324-.433 2.683-1.757 3.042z" fill="#eee"/><path d="M125.742 26.64c7.572-.248 15.2.398 22.675 1.487 6.957 1.012 13.915 2.403 20.588 4.64.387.13 1.9-.5 1.4-.667-7.042-2.357-14.397-3.787-21.74-4.803s-14.774-1.594-22.2-1.352c-.468.014-1.87.73-.742.696zm9.286 12.64c5.985.42 11.987 1.193 17.8 2.75.64.17 2.023-.77 1.022-1.04-5.928-1.594-12.07-2.4-18.178-2.818-.75-.05-1.792 1.026-.635 1.107zm-23.853-24.5c6.868-.447 13.755-.124 20.602.493.458.043 1.988-.745 1.08-.827-6.972-.628-14-.966-20.978-.5-.55.036-1.84.92-.703.845z" fill="#5d7183"/><path d="M225.085 108.476L168.064 93.2a4.34 4.34 0 0 1-3.067-5.31l20.418-76.192a4.34 4.34 0 0 1 5.31-3.067l61.206 16.4-21.54 80.38a4.33 4.33 0 0 1-5.307 3.066z" fill="#fff"/><path d="M226.2 109.334c-.44 0-.88-.056-1.3-.174l-8.572-2.296a.71.71 0 0 1-.501-.87c.103-.38.5-.603.87-.5l8.572 2.296a3.61 3.61 0 0 0 1.122.121c.4-.014.724.28.745.674a.71.71 0 0 1-.674.746l-.252.003zm-18.27-4.742a.66.66 0 0 1-.184-.025l-8.573-2.296c-.38-.103-.603-.5-.5-.87s.5-.603.87-.5l8.573 2.296a.71.71 0 0 1-.185 1.395zm23.34-1.77a.67.67 0 0 1-.185-.025c-.38-.103-.603-.5-.5-.87l2.296-8.572c.103-.38.5-.603.87-.5s.603.5.5.87l-2.296 8.573c-.085.315-.373.525-.685.525zM190.8 100c-.06 0-.12-.007-.184-.025l-8.573-2.297c-.38-.103-.603-.5-.5-.87s.5-.603.87-.5l8.573 2.297a.71.71 0 0 1-.185 1.395zm-17.144-4.593a.68.68 0 0 1-.185-.025l-5.59-1.498c-1.167-.312-2.186-1.036-2.864-2.037-.22-.323-.135-.767.188-.987s.767-.135.987.188c.5.717 1.217 1.24 2.058 1.462l5.59 1.498c.38.103.604.5.5.87a.71.71 0 0 1-.685.529zm62.217-9.73a.68.68 0 0 1-.185-.025c-.38-.103-.603-.5-.5-.87l2.296-8.572a.71.71 0 0 1 .87-.501.71.71 0 0 1 .501.87l-2.297 8.572a.71.71 0 0 1-.685.525zm-69.54-2.052a.66.66 0 0 1-.185-.025c-.38-.103-.603-.5-.5-.87l2.296-8.572a.71.71 0 0 1 .87-.5c.38.103.603.5.5.87l-2.296 8.572a.71.71 0 0 1-.685.525zm74.133-15.09a.68.68 0 0 1-.185-.025c-.38-.103-.603-.5-.5-.87l2.297-8.572c.103-.38.49-.603.87-.5s.604.5.5.87L241.15 68a.71.71 0 0 1-.685.525zm-69.54-2.055a.68.68 0 0 1-.185-.025c-.38-.103-.603-.5-.5-.87l2.296-8.572a.71.71 0 0 1 .87-.501.71.71 0 0 1 .501.87l-2.297 8.572a.71.71 0 0 1-.685.525zm74.133-15.09a.66.66 0 0 1-.184-.025c-.38-.103-.604-.5-.5-.87l2.297-8.572c.103-.38.5-.603.87-.5s.604.5.5.87l-2.297 8.572a.71.71 0 0 1-.685.525zm-69.54-2.055a.67.67 0 0 1-.185-.025.71.71 0 0 1-.5-.87l2.297-8.572c.103-.38.49-.603.87-.5s.604.5.5.87l-2.297 8.572c-.085.32-.373.525-.685.525zm74.133-15.09c-.06 0-.124-.007-.184-.025-.38-.103-.604-.5-.5-.87l1.158-4.32a3.71 3.71 0 0 0 .124-.941c0-.923-.348-1.8-.983-2.478-.267-.287-.253-.735.03-1.004s.735-.252 1.005.032c.88.94 1.367 2.165 1.367 3.447a4.98 4.98 0 0 1-.174 1.31l-1.158 4.32c-.085.323-.372.53-.685.53zm-69.54-2.052a.66.66 0 0 1-.184-.025c-.38-.103-.604-.5-.5-.87l2.297-8.572c.103-.38.5-.603.87-.5s.604.5.5.87l-2.297 8.572a.71.71 0 0 1-.685.525zm61.387-9.25c-.06 0-.12-.007-.185-.025l-8.572-2.297c-.38-.103-.603-.5-.5-.87s.49-.604.87-.5l8.573 2.297c.38.103.603.5.5.87-.082.316-.37.525-.685.525zm-17.14-4.593a.68.68 0 0 1-.185-.025L215.6 16.03c-.38-.103-.603-.5-.5-.87s.49-.607.87-.5l8.573 2.297c.38.103.603.5.5.87a.71.71 0 0 1-.685.525zm-39.653-3.3a.68.68 0 0 1-.184-.025c-.38-.103-.604-.5-.5-.87l.7-2.644c.6-2.2 2.59-3.74 4.87-3.74.178 0 .36.01.536.028a.71.71 0 0 1 .629.781.71.71 0 0 1-.781.628 3.48 3.48 0 0 0-.384-.021 3.63 3.63 0 0 0-3.5 2.687l-.7 2.645c-.085.323-.37.532-.685.532zm22.508-1.292c-.06 0-.12-.007-.184-.025l-8.572-2.297c-.38-.103-.604-.5-.5-.87a.71.71 0 0 1 .87-.501l8.572 2.297a.71.71 0 0 1 .501.87c-.086.316-.373.525-.686.525z" fill="#5d7183"/><path d="M255.608 11.22c-7.575-2.03-15.36 2.467-17.4 10.038s2.467 15.36 10.04 17.4 15.36-2.467 17.39-10.038a14.2 14.2 0 0 0-10.038-17.389z" fill="#e3e3e3"/><g fill="#fff"><path d="M257.305 25.983l1.405 1.853c.26.344 1.22-.075 1.47-.24l2.02-1.352c.305-.206.17-.387-.12-.454-.376-.085-.905.12-1.214.327l-2.02 1.352 1.47-.24-1.406-1.853c-.273-.37-1.92.195-1.604.6zm-10.88-1.583l-1.405-1.853c-.252-.33-1.228.1-1.47.248l-2.02 1.352c-.3.202-.177.373.118.433.37.078.908-.12 1.214-.327l2.02-1.352-1.47.248 1.405 1.853c.27.355 1.9-.2 1.608-.604z"/><path d="M260.414 27.3c1.168-4.032-.667-8.352-4.543-10.106-3.6-1.626-7.83-.6-10.528 2.18-.714.735.954.802 1.4.35 2.687-2.765 6.915-2.967 9.8-.348 2.283 2.073 3.003 5.197 2.16 8.114-.192.667 1.54.44 1.72-.192zm-17.06-4.256c-.934 4.082 1.13 8.317 5.143 9.783 3.6 1.313 7.65.135 10.23-2.6.444-.472-1.24-.334-1.58.028-2.7 2.86-6.908 2.907-9.794.28-2.17-1.974-2.942-4.916-2.296-7.73.124-.54-1.587-.273-1.704.248z"/></g><path d="M69.652.87a14.2 14.2 0 0 0-10.038 17.39 14.2 14.2 0 0 0 17.39 10.038 14.2 14.2 0 0 0 10.038-17.389C85.014 3.336 77.227-1.158 69.652.87z" fill="#8c0014"/><g fill="#fff"><path d="M65.715 17.03l15.427-4.135c1.484-.398 1.3-1.164-.202-.76L65.513 16.27c-1.484.398-1.3 1.168.202.76z"/><path d="M69.975 7.216L74.1 22.643c.32 1.19 2.89.504 2.57-.69L72.545 6.527c-.316-1.19-2.89-.504-2.57.69z"/></g><path d="M170.723 288.994c-.547-7.65-9.808-45.39-6.617-94.395.696-10.673-32.47.575-41.8 9.14a9.45 9.45 0 0 0-.852.898c-1.107-.887-2.296-1.69-3.496-2.43-4.767-2.943-10.308-5.253-15.852-4.444-.78.114-1.58.302-2.2.788-1.044.82-3.88.657-4.093 1.963-.87 5.377.075 11.23.724 16.676.54 4.54 1.523 9.048 2.566 13.495 2.342 9.985 5.093 19.807 8.5 29.476 1.207 3.426 10.67 34.62 18.34 34.62 7.638 0 7.06-60.876 7.454-63.3 1.71 2.936 18.113 41.65 28.07 58.466 1.77 2.992 5.523 6.368 8.093 4.028 1.314-1.192 1.285-3.223 1.16-5z" fill="#e3e3e3"/><path d="M163.45 212.496c-.015 1.55-23.26 2.47-25.284 2.545-7.43.263-14.866.18-22.284-.27-6.5-.394-14.383-1.687-20.056-3.586l.717 6.003c.54 4.54 1.523 9.048 2.566 13.495 2.342 9.985 5.093 19.807 8.5 29.476 1.207 3.426 10.67 34.62 18.34 34.62 7.638 0 7.06-60.875 7.454-63.29 1.71 2.936 18.113 41.65 28.07 58.466 1.77 2.992 5.523 6.368 8.093 4.028 1.3-1.192 1.285-3.223 1.157-5-.482-6.688-7.62-36.384-7.276-76.498z" fill="#eee"/><path d="M95.166 210.79c.735 11.195 3.464 22.295 6.468 33.068 3.173 11.384 6.907 22.657 11.412 33.586 1.622 3.937 3.336 7.863 5.377 11.604 1.026 1.88 2.268 4.53 4.192 5.7 2.016 1.214 4.785.146 6.102-1.587 2.222-2.92 2.45-7.362 2.737-10.86.59-7.252.525-14.554.724-21.823.266-9.71.82-19.4 2.09-29.043l-1.725.298c6.94 15.952 14.14 31.84 22.043 47.34l3.627 6.904c1.182 2.165 2.307 4.533 3.947 6.393 1.583 1.792 4.026 3.67 6.56 2.818 2.783-.937 3.053-3.9 2.857-6.414-.22-2.825-.784-5.637-1.245-8.43l-2.283-14.717c-2.45-17.425-3.794-34.995-3.74-52.598.003-.887-1.732-.625-1.736.135-.042 15.132.927 30.253 2.758 45.272 1.118 9.172 2.705 18.26 4.1 27.388.16 1.05.326 2.105.415 3.167.117 1.384.27 3.262-.67 4.412-1.618 1.987-4.298-.494-5.44-1.786-1.53-1.728-2.584-3.908-3.688-5.92-1.14-2.077-2.244-4.17-3.323-6.276-5.033-9.794-9.7-19.786-14.258-29.803l-8.203-18.347c-.295-.682-1.63-.42-1.726.298-1.973 14.958-1.923 29.97-2.488 45.012-.09 2.318-.1 20.048-6.066 17.21-1.782-.85-3.046-3.767-3.926-5.37-1.956-3.57-3.596-7.32-5.154-11.078-4.277-10.326-7.845-20.964-10.922-31.702-3.29-11.48-6.31-23.342-7.096-35.3-.053-.76-1.77-.355-1.718.46z" fill="#5d7183"/><g fill="#fff"><path d="M95 207.6c-.94-35.233-.298-49.328 20.446-89.936-.124-2.048-.185-17.052-.185-19.49v-2.872c0-16.012 7.87-28.997 17.578-28.997s17.578 12.98 17.578 28.997v2.872c0 4.874.436 9.453.32 14.327-.032 1.285.366 2.136.312 3.42-.02.48.416 3.362.526 3.83 8.175 34.833 13.24 42.954 14.834 89.13.983.685-36.835 7.67-71.408-1.282z"/><path d="M153.09 126.078c5.99 24.46 11.124 35.09 13.318 82.805-1.832 1.97-43.483 6.932-71.404-1.282-4.338-40.582 10.393-70.516 17.95-84.192 0 0 13.808 6.655 39.355.44.152-.036.78 2.23.78 2.23z"/></g><path d="M136.224 60.453c-.096-.362 3.695-1.058 4.072-1.11 4.753-.646 9.768 2.45 10.347 7.394.018.167.117 1.367.17 2.424.05.976.653 1.82 1.537 2.24 15.448 7.35-5.78 28.127-13.084 33.48-.738.54-7 4.263-6.897 4.717-2.065-9.144-8.522-12.807-16.182-16.605-5.403-2.68-9.066-9.573-9.396-15.405-.213-3.752.646-7.624 2.78-10.752 2.61-3.826 6.166-4.504 10.156-6.3 2.307-1.036 3.762-3.234 6.194-4.18 3.837-1.494 8.845-.014 10.304 4.1z" fill="#eee"/><g fill="#5d7183"><path d="M114.863 124.867c11.202 3.22 22.845 2.794 34.175.487 1.087-.22.735-1.484-.34-1.268-10.866 2.212-22.12 2.645-32.866-.44-.788-.227-2.013.92-.97 1.22zM58.73 99.95c3.766 3.386 3.134 8.668 3.02 13.222-.114 4.515.795 8.93 2.83 12.974 3.55 7.057 10.166 12.087 17.766 14.08 6.602 1.733 13.92 1.108 19.878-2.346 6.684-3.88 10.95-10.93 12.626-18.33 1.704-7.543 1.24-15.36 1.192-23.03-.04-6.56.75-12.87 3.493-18.905C122.14 71.9 127.18 65.422 134.3 66.85c6.765 1.36 10.915 8.356 12.988 14.372 2.822 8.178 2.218 16.846 2.53 25.358.15 4.05.078 8.05.688 12.065.522 3.43 1.53 6.82 2.368 10.18 2.964 11.888 6.37 23.687 8.572 35.752 1.193 6.545 2.04 13.147 2.652 19.774a361.46 361.46 0 0 1 .919 12.52l.34 6.854.135 3.326c.014.42-.146 1.718.074 2.062.036.054.125-.08.238-.195.096-.092-.042.04-.113.032-.22-.014-.547.146-.76.195-.763.18-1.54.32-2.314.458-2.435.43-4.885.756-7.34 1.033-7.54.845-15.135 1.207-22.72 1.133-9.6-.093-19.193-.884-28.62-2.666a128.8 128.8 0 0 1-6.954-1.512c-1.338-.33-1.324-.412-1.427-1.662-.2-2.452-.092-4.944-.032-7.4.145-6.173.33-12.37.767-18.53.735-10.347 2.48-20.4 5.8-30.257 1.58-4.703 3.43-9.307 5.417-13.85.113-.26-1.498-.13-1.7.306-4.14 9.452-7.63 19.224-9.488 29.4-1.573 8.633-1.927 17.404-2.272 26.15l-.26 7.986c-.05 2.36-.252 4.892.103 7.238.07.472.106.664.415.958.295.277 1.487.377 1.888.473l1.892.44a131.69 131.69 0 0 0 4.43.915c4.62.874 9.3 1.506 13.975 1.946 14.9 1.395 30.27 1.125 45.044-1.353 1.462-.245 2.964-.482 4.384-.916 1.938-.592 1.33-1.426 1.25-3.524-.34-8.8-.855-17.6-1.803-26.356-1.35-12.438-3.95-24.567-7.067-36.667l-5.254-20.794c-.727-3.042-1.203-6.098-1.43-9.218-.195-2.677-.04-5.42-.146-8.1l-.2-7.486c-.007-8.02-1.023-16.172-5.4-23.1-3.184-5.055-8.238-8.942-14.475-8.083-12.782 1.76-17.034 18.004-17.088 28.833-.04 8.13.646 16.417-1.057 24.435-1.765 8.296-6.855 16.623-15.086 19.772-7.802 2.985-17.074.816-23.7-3.923-3.695-2.633-6.638-6.2-8.547-10.308-2.055-4.433-2.58-9.012-2.392-13.847.163-4.16.163-8.693-3.177-11.695-.33-.3-1.864.362-1.615.586z"/><path d="M153.67 132.18c3.986 11.018 14.695 17.45 21.49 26.512 3.94 5.253 6.45 11.358 6.215 18.003-.238 6.737-2.73 13.457-7.14 18.58-1.992 2.3-4.473 4.415-5.584 7.337-.976 2.563-.703 5.74 1.58 7.496.504.387 2.094-.298 1.586-.688-2.52-1.938-2.37-5.488-.933-8.058 1.487-2.658 3.918-4.64 5.778-7.024 3.82-4.9 6.056-11.047 6.404-17.24.33-5.906-1.352-11.5-4.5-16.47-3.134-4.945-7.404-8.97-11.518-13.08-4.64-4.636-9.39-9.545-11.66-15.828-.23-.635-1.934-.142-1.714.462z"/></g></svg>