<svg xmlns="http://www.w3.org/2000/svg" width="160" height="61" fill="none" xmlns:v="https://vecta.io/nano"><path d="M160 0H0V61H160V0Z" fill="#8c0014"/><path d="M39.667 28.225l-5.695-8.083h-13.4v3.408h2.34v13.904h-2.34v3.405h8.485v-3.405h-2.37V28.44l8.753 12.42 8.724-12.417v9.012h-2.37v3.405h15.348v-3.405h-2.366V23.55h2.366v-3.408h-11.8l-5.667 8.083zm32.8-2.905H59.43v3.398h2.38v8.742h-2.38v3.398h15.43V37.46h-2.38V25.32zm-1.62-2.978l-1.65-2.776L64 21.94l1.65 2.805 5.207-2.404zm16.57 2.403C79.153 24.745 76 29.307 76 33.14c0 3.593 2.73 8.293 11.442 8.293 6.682 0 10.318-3.243 11.2-5.973h-5.916c-.216.835-1.278 2.826-3.92 2.826-1.844 0-3.02-1.192-3.02-2.486v-1.54h13s.063-.405.063-1.117c0-4.266-4.28-8.397-11.43-8.397zm1.67 6.922h-3.314v-2.123c0-.67.575-1.64 1.647-1.64 1.156 0 1.667 1 1.667 1.648v2.115zM113.6 20.142H100v3.406h2.37v13.905H100v3.406h16v-3.406h-2.4v-17.3zm25.768 14.118s.06-.405.06-1.117c0-4.266-4.275-8.397-11.428-8.397-8.273 0-11.43 4.562-11.43 8.395 0 3.593 2.733 8.293 11.444 8.293 6.683 0 10.318-3.243 11.2-5.973l-5.915.001c-.218.835-1.28 2.826-3.923 2.826-1.844 0-3.018-1.192-3.018-2.486v-1.54h13zm-13-4.715c0-.67.574-1.64 1.646-1.64 1.157 0 1.667 1 1.667 1.648v2.115h-3.313v-2.123z" fill="#fff"/></svg>