<svg xmlns="http://www.w3.org/2000/svg" width="30" height="30" fill="none" xmlns:v="https://vecta.io/nano"><path fill-rule="evenodd" d="M21.618 19.12H20.3l-.467-.45c2-2.333 3.033-5.517 2.467-8.9-.783-4.633-4.65-8.333-9.317-8.9C5.934.003.018 5.936.868 12.986c.567 4.667 4.267 8.533 8.9 9.317 3.383.567 6.567-.467 8.9-2.467l.45.467v1.317l7.1 7.083a1.74 1.74 0 0 0 2.467 0l.017-.017a1.74 1.74 0 0 0 0-2.467l-7.083-7.1zm-10 0a7.49 7.49 0 0 1-7.5-7.5 7.49 7.49 0 0 1 7.5-7.5 7.49 7.49 0 0 1 7.5 7.5 7.49 7.49 0 0 1-7.5 7.5zm-.833-10.833c0-.467.367-.833.833-.833s.833.367.833.833v2.5h2.5c.467 0 .833.367.833.833s-.367.833-.833.833h-2.5v2.5c0 .467-.367.833-.833.833s-.833-.367-.833-.833v-2.5h-2.5c-.467 0-.833-.367-.833-.833s.367-.833.833-.833h2.5v-2.5z" fill="#fff"/></svg>